<?xml version="1.0" encoding="UTF-8"?>
<svg id="Layer_2" data-name="Layer 2" xmlns="http://www.w3.org/2000/svg" viewBox="0 0 47.54 57.22">
  <defs>
    <style>
      .cls-1, .cls-2 {
        stroke-width: 0px;
      }

      .cls-2 {
        fill: #231f20;
      }
    </style>
  </defs>
  <g id="Layer_1-2" data-name="Layer 1">
    <path class="cls-1" d="M1.15,56.74l45.95-27.28c.6-.41.6-1.3,0-1.71L1.65.48c-.5-.35-1.18.02-1.15.63.24,4.99,8.36,21.56,21.94,26.25l.06-7.98c0-.54.62-.85,1.06-.52l14.23,9.76-14.23,9.76c-.43.33-1.06.02-1.06-.52l-.06-8C8.75,34.51.33,51.03,0,56.1c-.04.61.64.99,1.14.64Z"/>
    <path class="cls-2" d="M9.09,56.07c-.85.22-.65,1.15.25,1.15h23.2c4.63,0,8.39-3.29,8.39-7.36v-11.33c0-.69-1.21-.97-1.72-.39-3.76,4.19-13.71,13.62-30.13,17.93Z"/>
    <path class="cls-2" d="M9.09,1.15C8.24.93,8.44,0,9.34,0h23.2c4.63,0,8.39,3.29,8.39,7.36v11.33c0,.69-1.21.97-1.72.39-3.76-4.19-13.71-13.62-30.13-17.93Z"/>
  </g>
</svg>